<svg width="22" height="23" viewBox="0 0 22 23" fill="none" xmlns="http://www.w3.org/2000/svg">
    <path d="M16.5513 2.80884C17.0992 3.04917 17.6095 3.40695 18.0477 3.87104C18.4862 4.33546 18.8423 4.89574 19.0879 5.5236C19.287 6.03274 19.4089 6.57473 19.4479 7.12824L13.5636 16.1297L11.0599 19.4293L2.55348 7.10966C2.59386 6.5626 2.71524 6.02705 2.91215 5.5236C3.15771 4.89574 3.51376 4.33546 3.95228 3.87104C4.3905 3.40694 4.90083 3.04917 5.44869 2.80884C5.99585 2.56882 6.57465 2.44828 7.15385 2.44828C7.73304 2.44828 8.31185 2.56882 8.859 2.80884C9.25332 2.98182 9.62793 3.21547 9.97037 3.50583L11 4.37888L12.0296 3.50583C12.3721 3.21547 12.7467 2.98181 13.141 2.80884C13.6882 2.56882 14.267 2.44828 14.8462 2.44828C15.4254 2.44828 16.0042 2.56882 16.5513 2.80884ZM16.5513 2.80884L17.1928 1.513M9.50882 1.4961C10.046 1.73175 10.5479 2.04636 11 2.42972C11.4521 2.04636 11.954 1.73175 12.4912 1.4961C13.2378 1.16857 14.038 1 14.8462 1C15.6543 1 16.4545 1.16857 17.2011 1.4961C17.9477 1.82362 18.6261 2.30368 19.1976 2.90886C19.769 3.51404 20.2223 4.23249 20.5316 5.0232C20.8408 5.81391 21 6.66139 21 7.51724L14.8462 16.931L11 22L1 7.51724C1 6.66138 1.15917 5.81391 1.46843 5.0232C1.77769 4.23249 2.23098 3.51404 2.80242 2.90886C3.37386 2.30367 4.05225 1.82362 4.79887 1.4961C5.54549 1.16857 6.34571 1 7.15385 1C7.96198 1 8.7622 1.16857 9.50882 1.4961Z" stroke="#050505"/>
</svg>
