<svg width="26" height="25" viewBox="0 0 26 25" fill="none" xmlns="http://www.w3.org/2000/svg">
<path fill-rule="evenodd" clip-rule="evenodd" d="M17.3624 17.0695C15.6331 18.8754 13.1978 20 10.5 20C5.2533 20 1 15.7467 1 10.5C1 5.2533 5.2533 1 10.5 1C15.7467 1 20 5.2533 20 10.5C20 12.6883 19.2601 14.7037 18.0169 16.3099L17.9644 16.2574L17.2573 16.9645L17.3624 17.0695ZM18.0696 17.7768C16.1592 19.7636 13.474 21 10.5 21C4.70099 21 0 16.299 0 10.5C0 4.70101 4.70099 0 10.5 0C16.299 0 21 4.70101 21 10.5C21 12.9646 20.1509 15.2308 18.7292 17.0222L25.7426 24.0355L25.0355 24.7427L18.0696 17.7768Z" fill="#3A3A3A"/>
</svg>
